HIERARCHY
ROOT Hips
{
	OFFSET 0.000000 0.000000 0.000000 
	CHANNELS 6 Xposition Yposition Zposition Zrotation Yrotation Xrotation
	JOINT LeftUpLeg
	{
		OFFSET 1.363060 -1.794630 0.839290 
		CHANNELS 3 Zrotation Yrotation Xrotation
		JOINT LeftLeg
		{
			OFFSET 2.448110 -6.726130 0.000000 
			CHANNELS 3 Zrotation Yrotation Xrotation
			JOINT LeftFoot
			{
				OFFSET 2.562200 -7.039590 0.000000 
				CHANNELS 3 Zrotation Yrotation Xrotation
				JOINT LeftToeBase
				{
					OFFSET 0.157640 -0.433110 2.322550 
					CHANNELS 3 Zrotation Yrotation Xrotation
					End Site
					{
						OFFSET 0.000000 0.000000 0.000000 
					}
				}
			}
		}
	}
	JOINT RightUpLeg
	{
		OFFSET -1.305520 -1.794630 0.839290 
		CHANNELS 3 Zrotation Yrotation Xrotation
		JOINT RightLeg
		{
			OFFSET -2.542530 -6.985550 0.000000 
			CHANNELS 3 Zrotation Yrotation Xrotation
			JOINT RightFoot
			{
				OFFSET -2.568260 -7.056230 0.000000 
				CHANNELS 3 Zrotation Yrotation Xrotation
				JOINT RightToeBase
				{
					OFFSET -0.164730 -0.452590 2.363150 
					CHANNELS 3 Zrotation Yrotation Xrotation
					End Site
					{
						OFFSET 0.000000 0.000000 0.000000 
					}
				}
			}
		}
	}
	JOINT Spine
	{
		OFFSET 0.028270 2.035590 -0.193380 
		CHANNELS 3 Zrotation Yrotation Xrotation
		JOINT Spine1
		{
			OFFSET 0.056720 2.048850 -0.042750 
			CHANNELS 3 Zrotation Yrotation Xrotation
			JOINT Neck1
			{
				OFFSET -0.054170 1.746240 0.172020 
				CHANNELS 3 Zrotation Yrotation Xrotation
				JOINT Head
				{
					OFFSET 0.104070 1.761360 -0.123970 
					CHANNELS 3 Zrotation Yrotation Xrotation
					End Site
					{
						OFFSET 0.000000 0.000000 0.000000 
					}
				}
			}
			JOINT LeftArm
			{
				OFFSET 3.362410 1.200890 -0.311210 
				CHANNELS 3 Zrotation Yrotation Xrotation
				JOINT LeftForeArm
				{
					OFFSET 4.983000 -0.000000 -0.000000 
					CHANNELS 3 Zrotation Yrotation Xrotation
					JOINT LeftHand
					{
						OFFSET 3.483560 -0.000000 -0.000000 
						CHANNELS 3 Zrotation Yrotation Xrotation
						JOINT LeftHandIndex1
						{
							OFFSET 0.715260 -0.000000 -0.000000 
							CHANNELS 3 Zrotation Yrotation Xrotation
							End Site
							{
								OFFSET 0.000000 0.000000 0.000000 
							}
						}
					}
				}
			}
			JOINT RightArm
			{
				OFFSET -3.136600 1.374050 -0.404650 
				CHANNELS 3 Zrotation Yrotation Xrotation
				JOINT RightForeArm
				{
					OFFSET -5.241900 -0.000000 -0.000000 
					CHANNELS 3 Zrotation Yrotation Xrotation
					JOINT RightHand
					{
						OFFSET -3.444170 -0.000000 -0.000000 
						CHANNELS 3 Zrotation Yrotation Xrotation
						JOINT RightHandIndex1
						{
							OFFSET -0.622530 -0.000000 -0.000000 
							CHANNELS 3 Zrotation Yrotation Xrotation
							End Site
							{
								OFFSET 0.000000 0.000000 0.000000 
							}
						}
					}
				}
			}
		}
	}
}
MOTION
Frames: 18
Frame Time: 0.041667
8.947328 16.334642 25.217692 -169.706342 -6.920882 -178.550469 -13.147436 -22.800992 -30.538182 6.805576 18.829221 53.014653 5.467797 -18.075055 -13.145500 6.077200 -14.502700 -45.290700 33.455294 5.651702 -24.388478 -5.188780 -17.314855 53.599015 3.200453 -22.668002 -28.746646 -0.601300 -4.963900 13.805600 5.461088 2.785377 17.244680 -0.895746 2.745042 -18.662005 20.470021 -6.629189 -9.766286 5.723600 -4.510200 -0.888000 -39.058369 -48.725447 23.844967 58.487230 -49.562278 -30.815316 0.228224 0.767795 -4.358976 -7.125000 0.000000 0.000000 75.524019 -10.315871 49.739975 -102.320278 54.846201 -71.774946 -0.693613 -0.141094 2.902849 7.125000 0.000000 0.000000 
8.906064 16.333829 25.233965 -169.603826 -7.452649 -178.069638 -12.979488 -22.350970 -31.378635 6.797767 18.895112 52.900503 5.561774 -19.063233 -12.953863 5.988000 -14.416700 -44.933600 33.498967 6.353580 -24.978646 -5.252520 -17.475481 53.827205 3.567134 -23.644775 -28.390714 -0.573100 -4.847900 13.475200 5.552115 3.096848 17.613207 -1.371493 2.825422 -17.774041 20.659054 -7.040135 -10.471164 5.847600 -4.778000 -0.986500 -38.073043 -46.983845 21.373227 55.468668 -48.645919 -28.021154 0.343390 0.715616 -3.730980 -7.125000 0.000000 0.000000 75.317612 -9.152133 49.103501 -103.241480 54.818893 -72.574270 -0.694945 -0.123743 3.494649 7.125000 0.000000 0.000000 
8.846551 16.336502 25.253028 -169.568435 -8.003592 -177.119426 -12.783507 -22.166944 -32.518777 6.695597 18.971985 52.581856 5.568337 -20.248852 -12.310181 5.677800 -14.108600 -43.674300 33.302678 6.875223 -25.886641 -5.201683 -17.588778 53.690816 3.860165 -24.275409 -27.888358 -0.577600 -4.866700 13.528800 5.185120 3.193697 16.368009 -1.979032 2.715143 -17.968426 20.769090 -6.991609 -10.847813 5.870600 -4.805900 -1.124000 -38.264029 -44.952276 19.550889 51.874507 -47.324920 -24.838432 0.465875 0.644399 -1.295340 -7.125000 0.000000 0.000000 75.481891 -9.235482 49.633220 -104.800049 54.771670 -73.980947 -0.748669 -0.136655 3.356179 7.125000 0.000000 0.000000 
8.766464 16.368119 25.268139 -169.653182 -9.350266 -176.437692 -12.863590 -22.814427 -33.153491 6.450535 18.931219 51.908570 5.481117 -21.395704 -11.380765 5.361100 -13.779300 -42.360300 32.825092 6.539309 -26.563811 -5.052816 -17.539099 53.223871 3.960210 -24.460303 -27.804400 -0.635300 -5.099800 14.193300 5.218551 3.021127 15.913862 -2.550149 2.507827 -17.373400 20.696582 -7.038774 -11.790546 5.942500 -4.918400 -1.467300 -38.429827 -43.142678 18.604801 49.153229 -46.066034 -22.488858 0.556371 0.568242 1.391916 -7.125000 0.000000 0.000000 75.427251 -9.503154 50.291798 -106.579172 54.609363 -75.600358 -0.813976 -0.188981 1.304057 7.125000 0.000000 0.000000 
8.687074 16.426470 25.272904 -169.841682 -10.545805 -175.741923 -13.158374 -23.243038 -33.378682 6.092163 18.749455 50.911094 5.386882 -22.388732 -10.383137 5.120300 -13.518000 -41.339800 32.209012 6.259364 -26.834869 -4.796306 -17.388450 52.414195 4.015873 -24.520397 -27.789501 -0.672000 -5.242100 14.600200 5.593453 3.354545 13.954280 -3.338059 2.508232 -16.983827 21.281984 -7.057125 -13.641951 6.560100 -5.090100 -2.370200 -41.094767 -40.665284 20.056177 47.289344 -44.971354 -20.929198 0.665926 0.490601 4.199549 -7.125000 0.000000 0.000000 75.529553 -11.763210 49.429278 -109.534260 54.345788 -78.130970 -0.815373 -0.168786 3.307378 7.125000 0.000000 0.000000 
8.609777 16.495863 25.271626 -170.084649 -11.447190 -175.483179 -13.594518 -23.366959 -33.079635 5.647698 18.396271 49.610314 5.283354 -23.613360 -9.075393 4.773300 -13.123800 -39.833700 31.598885 5.801975 -26.591701 -4.477298 -17.086291 51.321751 4.157434 -24.684742 -27.514483 -0.689500 -5.308500 14.790500 5.296278 2.828642 14.135328 -3.309825 2.211364 -17.388978 20.784469 -7.421859 -11.624251 5.991300 -5.082800 -1.427200 -40.854049 -38.085224 17.884726 45.818710 -44.311698 -19.630768 0.715636 0.435764 6.007419 -7.125000 0.000000 0.000000 75.373641 -10.614235 50.757562 -111.426668 54.160245 -79.833832 -0.869652 -0.194886 1.671064 7.125000 0.000000 0.000000 
8.524924 16.578507 25.274532 -170.179222 -12.236700 -175.442616 -14.058590 -23.219724 -32.442422 5.135069 17.918443 48.096340 5.163030 -24.677256 -7.575538 4.489700 -12.785000 -38.568700 31.109693 5.265531 -26.072081 -4.089009 -16.703224 49.966145 4.410672 -25.068317 -27.014672 -0.701400 -5.353000 14.918200 5.872182 2.712967 13.918308 -3.460298 2.136267 -17.228975 20.794717 -7.475839 -11.610580 6.025900 -5.096800 -1.410800 -41.842542 -35.593741 17.685606 44.367412 -43.437973 -18.417737 0.766806 0.386801 6.678557 -7.125000 0.000000 0.000000 75.141969 -10.704937 50.761036 -113.464206 53.917135 -81.515122 -0.851020 -0.169411 3.124188 7.125000 0.000000 0.000000 
8.435305 16.674751 25.276624 -170.240223 -12.988628 -175.510587 -14.568138 -22.954597 -31.577179 4.587299 17.378959 46.448393 5.125765 -25.003160 -6.547076 4.677200 -13.010800 -39.408800 30.672739 4.763709 -25.279796 -3.633450 -16.230052 48.375418 4.607924 -25.347219 -26.662569 -0.813200 -5.754500 16.073800 6.309489 2.539462 13.688862 -3.672784 2.006180 -17.227273 20.666248 -7.481503 -11.555370 5.992600 -5.084400 -1.398300 -42.882548 -33.161819 17.921681 42.867448 -42.469369 -17.220640 0.812176 0.346751 6.664567 -7.125000 0.000000 0.000000 75.069087 -10.731586 51.182029 -115.089937 53.693279 -82.878742 -0.835019 -0.126986 4.306840 7.125000 0.000000 0.000000 
8.348244 16.775994 25.273137 -170.223503 -13.626698 -175.645780 -14.977426 -22.461121 -30.558034 4.027325 16.786501 44.662220 5.220729 -24.847088 -6.099830 5.333500 -13.749800 -42.244400 30.364017 4.317431 -24.281437 -3.122217 -15.674955 46.563673 4.796181 -25.589767 -26.285754 -1.017100 -6.416300 17.997100 6.520834 2.441091 13.552295 -3.941901 1.891434 -17.197135 20.446095 -7.595402 -11.275794 5.865900 -5.110600 -1.305300 -43.939350 -30.815228 18.592895 41.458431 -41.493951 -16.151492 0.858667 0.293780 6.097344 -7.125000 0.000000 0.000000 75.291641 -10.924345 51.843031 -116.701092 53.418795 -84.251035 -0.843093 -0.095527 5.444773 7.125000 0.000000 0.000000 
8.253976 16.892463 25.266395 -170.220995 -13.919115 -175.805402 -15.314589 -21.690837 -29.434282 3.427987 16.105195 42.712543 5.290105 -24.961532 -5.242638 5.700600 -14.131800 -43.768000 30.022931 4.100824 -23.074748 -2.572216 -15.044783 44.549367 4.991123 -25.763451 -25.709624 -1.249700 -7.087500 19.975000 6.426715 2.502603 13.393387 -4.282306 1.832128 -17.147270 20.259862 -7.760481 -10.850936 5.720900 -5.155600 -1.188400 -45.084129 -28.551011 19.503900 39.909091 -40.353254 -15.031909 0.909033 0.233359 5.623074 -7.125000 0.000000 0.000000 75.533174 -11.193695 53.138411 -117.960182 53.181489 -85.328497 -0.856993 -0.091103 5.852220 7.125000 0.000000 0.000000 
8.151106 17.035202 25.247913 -170.491051 -13.977914 -175.973683 -15.880827 -20.730570 -28.122896 2.776860 15.306714 40.609714 5.242458 -25.573910 -3.582071 5.473100 -13.897500 -42.828500 29.361191 4.134171 -21.572202 -2.006367 -14.334845 42.386811 5.195011 -25.936300 -25.121418 -1.454600 -7.623300 21.575500 6.248889 2.495102 13.264972 -4.414471 1.783730 -17.064479 20.034647 -7.884374 -10.229234 5.578000 -5.154800 -1.020000 -46.532123 -26.391946 20.184166 38.022920 -38.844880 -13.697520 0.966906 0.160581 6.079549 -7.125000 0.000000 0.000000 75.420122 -11.094534 55.282157 -118.252275 53.137766 -85.614292 -0.863264 -0.105069 5.616466 7.125000 0.000000 0.000000 
8.049399 17.181660 25.218505 -170.797628 -13.982178 -176.119427 -16.499606 -19.362394 -26.803299 2.132598 14.475748 38.437001 5.326977 -25.490990 -2.602472 5.646700 -14.077000 -43.546900 28.694938 4.354326 -20.012548 -1.443700 -13.606802 40.177220 5.576772 -26.673452 -24.625885 -1.396400 -7.475700 21.132600 6.279148 2.443548 13.116091 -4.460071 1.739683 -16.852940 19.952556 -8.075815 -9.257378 5.531500 -5.141100 -0.695300 -48.344917 -24.535183 20.598194 35.817900 -36.913462 -12.192151 1.030803 0.042258 7.656339 -7.125000 0.000000 0.000000 75.529810 -11.339187 57.054640 -118.646259 53.062444 -85.993939 -0.870149 -0.096782 5.776966 7.125000 0.000000 0.000000 
7.949784 17.315100 25.188981 -171.040241 -13.829904 -176.134815 -17.017426 -17.653761 -25.710332 1.525657 13.675808 36.295638 5.525615 -24.749921 -2.306012 6.029900 -14.457300 -45.101700 28.114806 4.865203 -18.594460 -0.874711 -12.898212 37.991485 5.928492 -27.552737 -24.697322 -1.271000 -7.145600 20.147400 6.359086 2.461170 12.701871 -4.587956 1.708048 -16.613069 20.065061 -8.289732 -7.978488 5.585900 -5.108600 -0.260800 -50.467774 -22.722153 20.771613 33.587553 -34.787527 -10.722151 1.102604 -0.064083 10.395087 -7.125000 0.000000 0.000000 75.428602 -11.496905 59.112538 -118.516391 53.108474 -85.959943 -0.874038 -0.084837 5.619806 7.125000 0.000000 0.000000 
7.854470 17.437497 25.166780 -171.278787 -13.426717 -175.931657 -17.379835 -15.848288 -24.937297 0.917037 12.999098 34.318459 5.703438 -20.501686 -3.667981 7.167900 -15.471700 -49.506700 27.567744 5.775902 -17.396103 -0.313696 -12.237100 35.918706 6.155277 -28.344207 -25.446580 -1.325700 -7.291600 20.582200 6.078580 2.632723 11.929320 -4.810583 1.712152 -16.493521 20.427021 -8.485529 -6.713465 5.707400 -5.083800 0.157800 -52.572447 -20.949432 20.486098 31.257534 -32.470503 -9.320893 1.172269 -0.224269 14.411554 -7.125000 0.000000 0.000000 75.646194 -11.795568 60.891009 -118.308851 53.194502 -85.869326 -0.872735 -0.066707 5.445932 7.125000 0.000000 0.000000 
7.765084 17.555594 25.152483 -171.499898 -12.901470 -175.615725 -17.503681 -14.265256 -24.387589 0.310890 12.349751 32.494482 5.337873 -16.236267 -3.878581 7.347300 -15.617500 -50.175900 27.132238 6.840083 -16.429568 0.186976 -11.656446 34.118143 6.257177 -28.997881 -26.646514 -1.514400 -7.771600 22.022300 5.334063 2.730500 11.382145 -4.942725 1.685820 -16.449260 20.631249 -8.759798 -5.570904 5.650800 -5.118600 0.584200 -54.003385 -19.893100 19.172826 28.266896 -29.309600 -7.669969 1.296893 -0.329222 19.284803 -7.125000 0.000000 0.000000 76.236835 -11.604608 62.643794 -117.966851 53.268706 -85.695023 -0.957333 -0.098951 4.707008 7.125000 0.000000 0.000000 
7.675814 17.671366 25.131444 -171.884106 -12.428524 -175.321116 -17.695203 -13.045838 -23.679128 -0.339023 11.791992 30.948232 3.661547 -7.953984 -5.121767 7.734600 -15.920500 -51.600800 26.583879 7.646029 -15.561186 0.584489 -11.154366 32.675331 6.116030 -29.057392 -27.952047 -1.807900 -8.454000 24.101700 4.528326 2.815470 10.794283 -4.955013 1.672760 -16.367715 20.485961 -9.286888 -4.370051 5.463500 -5.273200 0.990400 -55.642518 -18.631970 18.190886 26.336829 -27.129295 -6.693832 1.312617 -0.534701 22.235844 -7.125000 0.000000 0.000000 76.861757 -11.552785 64.376146 -117.289459 53.480318 -85.214145 -0.960174 -0.103411 3.421776 7.125000 0.000000 0.000000 
7.585847 17.781210 25.105988 -172.420608 -11.943091 -175.106949 -18.012433 -12.197229 -22.798956 -0.867375 11.342075 29.776205 1.253158 0.006524 -6.712933 7.465600 -15.711800 -50.614000 25.957693 8.041244 -14.856741 0.837416 -10.768094 31.613945 6.113105 -29.090521 -28.301902 -1.897700 -8.649800 24.705700 3.958675 2.789283 10.252804 -4.783079 1.665879 -16.272244 20.971563 -9.468840 -3.809163 5.622000 -5.315000 1.198200 -57.548656 -17.235902 16.592358 24.649448 -25.152623 -5.902107 1.287056 -0.760375 25.105305 -7.125000 0.000000 0.000000 77.239655 -11.419901 65.803405 -116.350477 53.716420 -84.515611 -0.967067 -0.105361 2.343323 7.125000 0.000000 0.000000 
7.499483 17.887566 25.094481 -172.847649 -11.348715 -174.836684 -18.022893 -11.759048 -22.131247 -1.174140 11.057229 29.026011 -0.383267 4.773339 -8.133616 5.838400 -14.269800 -44.329500 25.583627 8.288783 -14.580716 0.960431 -10.553381 30.958395 6.323846 -29.293767 -27.632056 -1.653500 -8.103700 23.029500 3.054036 2.855617 9.984631 -4.685267 1.692479 -16.171304 21.674725 -9.704372 -3.232120 5.793800 -5.374900 1.510500 -59.003461 -16.397981 13.188035 22.020155 -22.044309 -4.831915 1.510563 -0.794058 33.107161 -7.125000 0.000000 0.000000 78.023648 -10.936415 66.298001 -115.178121 53.997861 -83.612624 -0.978596 -0.100511 1.540837 7.125000 0.000000 0.000000 
